<svg id="Layer_1" enable-background="new 0 0 512.057 512.057" height="512" viewBox="0 0 512.057 512.057" width="512" xmlns="http://www.w3.org/2000/svg"><g><circle cx="256" cy="256.029" fill="#c8effd" r="256"/><path d="m437.02 75.009c-54.906-54.907-128.106-79.805-201.02-74.206 130.586 10.026 236 119.029 236 255.226 0 136.259-105.475 245.205-236 255.226 73.086 5.617 146.242-19.427 201.02-74.206 100.045-100.046 100.054-261.987 0-362.04z" fill="#a0e1fd"/><path d="m368 168.029v150.93c0 5.963-6.357 9.904-11.75 7.07-7.4-3.93-15.79-6-24.25-6h-36.8c-5.026 0-8.852-4.612-7.84-9.57.917-4.651.64-5.247.64-34.56 0-2.67 1.33-5.16 3.55-6.65 17.81-11.92 28.45-31.819 28.45-53.22v-45.58l-9.53-14.3c-15.35 12.373-35.153 19.88-56.41 19.88h-62.06v40c0 22.168 11.2 41.67 28.45 53.22 2.22 1.49 3.55 3.98 3.55 6.65 0 30.258-.213 30.233.64 34.56 1.014 4.964-2.82 9.57-7.84 9.57h-36.8c-8.46 0-16.85 2.07-24.25 6-5.333 2.816-11.75-1.055-11.75-7.07v-150.93c0-61.76 50.24-112 112-112 61.902 0 112 50.086 112 112z" fill="#595965"/><path d="m240.055 57.169c53.944 7.695 95.945 54.102 95.945 110.86 0 161.952.059 151.111-.106 152.163 7.122.535 14.094 2.512 20.356 5.837 5.332 2.802 11.75-1.049 11.75-7.07v-150.93c0-67.915-60.058-120.582-127.945-110.86z" fill="#44454e"/><path d="m400 372.029v30.64c0 2.221-.93 4.351-2.56 5.86-79.667 73.963-203.113 74.056-282.88 0-1.63-1.51-2.56-3.64-2.56-5.86v-30.64c0-38.01 30.882-68 68-68h36.8c3.8 0 7.08 2.68 7.84 6.41 3.01 14.83 16.2 25.59 31.36 25.59s28.35-10.76 31.36-25.59c.76-3.73 4.04-6.41 7.84-6.41h36.8c37.268 0 68 30.136 68 68z" fill="#e48c9b"/><path d="m332 304.029h-32c37.268 0 68 30.137 68 68v30.64c0 2.221-.93 4.351-2.56 5.86-34.624 32.146-78.673 51.309-125.44 54.88 58.263 4.453 114.939-15.422 157.44-54.88 1.63-1.51 2.56-3.64 2.56-5.86v-30.64c0-37.866-30.734-68-68-68z" fill="#cc5b6f"/><path d="m304 275.899c0 29.734.322 31.372-.96 37.7-4.52 22.279-24.3 38.43-47.04 38.43s-42.52-16.15-47.04-38.41c-1.3-6.46-.96-8.078-.96-37.72 0-6.381 7.133-10.208 12.45-6.65 21.267 14.238 49.414 14.519 71.1 0 5.302-3.549 12.45.252 12.45 6.65z" fill="#ebb19c"/><path d="m291.55 269.248c-21.482 14.373-49.612 14.386-71.1 0-5.302-3.548-12.45.252-12.45 6.65v20.12c13.113 9.946 29.963 16.046 48.158 16.01 6.789-.013 10.995 7.372 7.37 13.112-6.091 9.646-14.869 21.039-23.529 24.121 27.423 9.753 57.266-7.202 63.04-35.663 1.256-6.204.96-7.517.96-37.7.001-6.38-7.132-10.208-12.449-6.65z" fill="#e58d72"/><path d="m336 168.029v48c0 26.75-13.29 51.62-35.55 66.52-52.979 35.481-124.45-2.623-124.45-66.52v-48c0-4.42 3.58-8 8-8h70.06c20.084 0 38.752-8.112 52.28-21.66 3.644-3.621 9.562-2.906 12.32 1.22 16.993 25.488 17.34 25.115 17.34 28.44z" fill="#ebb19c"/><path d="m334.66 163.588-16-24c-1.33-1.989-3.49-3.279-5.87-3.52-6.386-.668-6.483 4.644-19.85 12.898-11.796 7.289-25.121 11.062-38.88 11.062h-70.06c-4.42 0-8 3.58-8 8v16c0-4.42 3.58-8 8-8h70.06c16.906 0 33.097-5.752 46.118-16.163 2.361 3.542 3.822 5.129 3.822 8.163v48c0 38.282-27.056 70.885-64 78.385 49.92 10.136 96-28.078 96-78.385 0-52.099.528-49.605-1.34-52.44z" fill="#e58d72"/></g></svg>